<svg xmlns="http://www.w3.org/2000/svg"  viewBox="0 0 16 16" width="32px" height="32px" baseProfile="basic"><path fill="#2dadfc" d="M5,0C2.239,0,0,2.239,0,5s2.239,5,5,5s5-2.239,5-5S7.761,0,5,0z"/><path fill="#2dadfc" d="M11,6c-2.761,0-5,2.239-5,5s2.239,5,5,5s5-2.239,5-5S13.761,6,11,6z"/><path fill="#36c8f6" d="M8,0.5C3.858,0.5,0.5,3.858,0.5,8s3.358,7.5,7.5,7.5s7.5-3.358,7.5-7.5S12.142,0.5,8,0.5z"/><path fill="#fff" d="M4.913,11.153c0-0.454,0.476-0.709,0.8-0.709c0.326,0,1.229,0.634,2.097,0.634	c0.46,0,1.494-0.046,1.494-1.001c0-1.564-4.417-1.443-4.417-4.048c0-0.454,0.124-2.529,3.399-2.529c0.88,0,2.493,0.251,2.493,1.088	c0,0.614-0.419,0.772-0.699,0.772c-0.542,0-0.762-0.491-1.871-0.491c-1.531,0-1.494,0.917-1.494,1.052	c0,1.316,4.398,1.316,4.398,4.04c0,2.681-3.271,2.537-3.745,2.537C6.879,12.499,4.913,12.262,4.913,11.153z"/></svg>