<svg width="23" height="18" viewBox="0 0 23 18" fill="none" xmlns="http://www.w3.org/2000/svg">
<path d="M10.6406 7.75L11.8906 5L13.1406 7.75L15.8906 9L13.1406 10.25L11.8906 13L10.6406 10.25L7.89062 9L10.6406 7.75Z" fill="#3F61E2"/>
<path d="M16.5459 2.56152L17.4688 0.53125L18.3916 2.56152L20.4219 3.48438L18.3916 4.40723L17.4688 6.4375L16.5459 4.40723L14.5156 3.48438L16.5459 2.56152Z" fill="#3F61E2"/>
<path d="M13.3617 1.03125H3.5625C2.45793 1.03125 1.5625 1.92668 1.5625 3.03125V14.9688C1.5625 16.0733 2.45793 16.9688 3.5625 16.9688H19.8125C20.9171 16.9688 21.8125 16.0733 21.8125 14.9688V7.28125" stroke="#3F61E2" stroke-width="1.5" stroke-linejoin="round"/>
</svg>
