<svg width="21" height="19" viewBox="0 0 21 19" fill="none" xmlns="http://www.w3.org/2000/svg">
<path d="M2.64062 12.2834V15.7501C2.64062 16.8546 3.53606 17.7501 4.64062 17.7501H16.3502C17.4548 17.7501 18.3502 16.8546 18.3502 15.7501V12.2834M10.6681 11.7655V14.355M12.567 3.89627C12.567 2.81732 12.0347 1.65205 10.6681 1.56573C8.81595 1.44875 8.52453 2.94679 8.52453 3.89627" stroke="#581C87" stroke-width="1.5" stroke-linecap="round" stroke-linejoin="round"/>
<path d="M1.17188 5.94222V9.88962C1.17188 10.7378 1.7028 11.4981 2.51837 11.731C6.40729 12.8414 13.308 13.9056 18.6865 11.8057C19.3922 11.5302 19.8162 10.8266 19.8162 10.069V5.94222C19.8162 4.83765 18.9208 3.94222 17.8162 3.94222H3.17188C2.06731 3.94222 1.17188 4.83765 1.17188 5.94222Z" stroke="#581C87" stroke-width="1.5" stroke-linecap="round" stroke-linejoin="round"/>
</svg>
