<svg width="23" height="18" viewBox="0 0 23 18" fill="none" xmlns="http://www.w3.org/2000/svg">
<path d="M10.7812 8.75L9.53125 6L8.28125 8.75L5.53125 10L8.28125 11.25L9.53125 14L10.7812 11.25L13.5312 10L10.7812 8.75Z" fill="#9333EA"/>
<path d="M4.87598 2.99902L3.95312 0.96875L3.03027 2.99902L1 3.92188L3.03027 4.84473L3.95312 6.875L4.87598 4.84473L6.90625 3.92188L4.87598 2.99902Z" fill="#9333EA"/>
<path d="M17.4375 8.23438L20.1878 6.03413C20.8426 5.51032 21.8125 5.97649 21.8125 6.815V10.1719" stroke="#9333EA" stroke-width="1.5"/>
<path d="M17.4375 11.6094L20.1878 13.8096C20.8426 14.3334 21.8125 13.8673 21.8125 13.0288V9.67188" stroke="#9333EA" stroke-width="1.5"/>
<path d="M8.1875 2.875H15.4375C16.5421 2.875 17.4375 3.77043 17.4375 4.875V14.9687C17.4375 16.0733 16.5421 16.9687 15.4375 16.9687H3.5625C2.45793 16.9687 1.5625 16.0733 1.5625 14.9687V8.40196" stroke="#9333EA" stroke-width="1.5" stroke-linejoin="round"/>
</svg>
