<svg width="22" height="23" viewBox="0 0 22 23" fill="none" xmlns="http://www.w3.org/2000/svg">
<path d="M18.9463 5.73966L12.1287 1.91984C11.5242 1.58114 10.7874 1.57948 10.1814 1.91546L3.28028 5.74133C2.64447 6.09381 2.25 6.76354 2.25 7.49051V15.0207C2.25 15.7417 2.63806 16.4069 3.26568 16.7617L10.1112 20.632C10.721 20.9768 11.4668 20.9773 12.0772 20.6335L18.9504 16.7612C19.5795 16.4068 19.9688 15.7408 19.9688 15.0187V7.48446C19.9688 6.7607 19.5777 6.09342 18.9463 5.73966Z" stroke="#A21CAF" stroke-width="1.5"/>
<circle cx="2.59375" cy="6.15625" r="2.03125" fill="#A21CAF"/>
<circle cx="11.1094" cy="20.4375" r="2.03125" fill="#A21CAF"/>
<circle cx="19.5312" cy="6.15625" r="2.03125" fill="#A21CAF"/>
<path d="M11.0469 10.625L15.625 8.1875M11.0469 10.625V15.125M11.0469 10.625L6.78125 8.1875" stroke="#A21CAF" stroke-width="1.5" stroke-linecap="round" stroke-linejoin="round"/>
</svg>
