<svg width="21" height="18" viewBox="0 0 21 18" fill="none" xmlns="http://www.w3.org/2000/svg">
<path d="M2.12109 1.06244H3.56333H4.3125C4.86478 1.06244 5.3125 1.51015 5.3125 2.06244V7.31244V15.9999C5.3125 16.5522 4.86478 16.9999 4.3125 16.9999H2.12109C1.56881 16.9999 1.12109 16.5522 1.12109 15.9999V2.06244C1.12109 1.51015 1.56881 1.06244 2.12109 1.06244Z" stroke="#0891B2" stroke-width="1.5" stroke-linecap="round" stroke-linejoin="round"/>
<path d="M1.17188 4.6875H5.3125" stroke="#0891B2" stroke-width="1.5" stroke-linecap="round" stroke-linejoin="round"/>
<path d="M6.38672 13.3125H10.5273" stroke="#0891B2" stroke-width="1.5" stroke-linecap="round" stroke-linejoin="round"/>
<path d="M12.7773 5.81189L16.7624 4.68749" stroke="#0891B2" stroke-width="1.5" stroke-linecap="round" stroke-linejoin="round"/>
<path d="M15.0898 13.625L19.0749 12.5006" stroke="#0891B2" stroke-width="1.5" stroke-linecap="round" stroke-linejoin="round"/>
<path d="M7.55859 1.06244H9.00083H9.75C10.3023 1.06244 10.75 1.51015 10.75 2.06244V7.31244V15.9999C10.75 16.5522 10.3023 16.9999 9.75 16.9999H7.55859C7.00631 16.9999 6.55859 16.5522 6.55859 15.9999V2.06244C6.55859 1.51015 7.00631 1.06244 7.55859 1.06244Z" stroke="#0891B2" stroke-width="1.5" stroke-linecap="round" stroke-linejoin="round"/>
<path d="M12.5614 1.68953L13.9457 1.28497L14.6648 1.07482C15.195 0.919903 15.7503 1.22406 15.9052 1.75417L17.3779 6.79339L19.8148 15.1321C19.9697 15.6622 19.6655 16.2175 19.1354 16.3725L17.032 16.9872C16.5019 17.1421 15.9465 16.8379 15.7916 16.3078L11.8821 2.92988C11.7271 2.39977 12.0313 1.84444 12.5614 1.68953Z" stroke="#0891B2" stroke-width="1.5" stroke-linecap="round" stroke-linejoin="round"/>
</svg>
