<?xml version="1.0" encoding="iso-8859-1"?>
<!-- Uploaded to: SVG Repo, www.svgrepo.com, Generator: SVG Repo Mixer Tools -->
<svg height="800px" width="800px" version="1.1" id="Layer_1" xmlns="http://www.w3.org/2000/svg" xmlns:xlink="http://www.w3.org/1999/xlink" 
	 viewBox="0 0 512.001 512.001" xml:space="preserve">
<path style="fill:#003C61;" d="M165.407,383.64c11.406,11.406,29.9,11.406,41.306,0l52.609-52.609
	c14.773-14.773,29.183-29.905,43.217-45.381L501.775,65.946c14.132-15.585,13.548-39.516-1.328-54.392
	c-14.877-14.875-38.808-15.46-54.392-1.328L226.35,209.461c-15.476,14.034-30.608,28.444-45.381,43.217l-52.609,52.609
	c-11.406,11.406-11.406,29.9,0,41.306L165.407,383.64z"/>
<path style="fill:#004F80;" d="M499.96,11.091c-14.906-14.415-38.488-14.846-53.906-0.865L226.35,209.461
	c-15.476,14.034-30.608,28.444-45.381,43.217l-52.609,52.609c-11.406,11.406-11.406,29.9,0,41.306l18.049,18.049L499.96,11.091z"/>
<path style="fill:#C27526;" d="M56.925,359.263c32.274-32.274,79.887-36.991,106.344-10.532s21.742,74.07-10.532,106.344
	S30.249,528.503,6.873,505.127C-16.503,481.75,24.651,391.538,56.925,359.263z"/>
<path style="fill:#F7DC4D;" d="M56.925,359.262C24.651,391.538-16.503,481.75,6.873,505.127l156.396-156.396
	C136.812,322.273,89.199,326.988,56.925,359.262z"/>
<path style="fill:#30767A;" d="M157.3,284.641l70.059,70.059c7.111,7.111,7.111,18.642,0,25.753l-33.525,33.525
	c-7.111,7.111-18.642,7.111-25.753,0l-70.059-70.059c-7.111-7.111-7.111-18.642,0-25.753l33.525-33.525
	C138.658,277.529,150.189,277.529,157.3,284.641z"/>
<path style="fill:#4AB6BF;" d="M192.329,319.671l-34.453-34.453c-7.43-7.43-19.477-7.43-26.907,0l-32.372,32.372
	c-7.43,7.43-7.43,19.477,0,26.907l34.453,34.453L192.329,319.671z"/>
</svg>